<svg width="30" height="31" viewBox="0 0 30 31" fill="none" xmlns="http://www.w3.org/2000/svg">
<path fill-rule="evenodd" clip-rule="evenodd" d="M6.66634 10.6061C8.50729 10.6061 9.99967 9.11374 9.99967 7.27279C9.99967 5.43184 8.50729 3.93945 6.66634 3.93945C4.82539 3.93945 3.33301 5.43184 3.33301 7.27279C3.33301 9.11374 4.82539 10.6061 6.66634 10.6061ZM11.5135 12.369V28.1161H17.1092V19.4442C17.1092 18.8192 17.2068 18.3065 17.4021 17.9061C17.6072 17.5057 17.8709 17.2079 18.1931 17.0126C18.5252 16.8173 18.8816 16.7196 19.2625 16.7196C19.5457 16.7196 19.8435 16.788 20.156 16.9247C20.4783 17.0614 20.7468 17.3153 20.9617 17.6864C21.1863 18.0477 21.2986 18.58 21.2986 19.2831V28.1161H26.8797V17.8622C26.8797 15.9481 26.4158 14.5175 25.4881 13.5702C24.5701 12.6229 23.3299 12.1493 21.7674 12.1493C20.8299 12.1493 20.0437 12.3055 19.409 12.618C18.784 12.9305 18.2908 13.3114 17.9295 13.7606C17.5681 14.2098 17.324 14.6346 17.197 15.035H16.9187V12.369H11.5135ZM3.85056 12.369V28.1161H9.43161V12.369H3.85056Z" fill="#0057FC"/>
</svg>
