<svg width="31" height="31" viewBox="0 0 31 31" fill="none" xmlns="http://www.w3.org/2000/svg">
<path fill-rule="evenodd" clip-rule="evenodd" d="M7.16634 10.7604C9.00729 10.7604 10.4997 9.26803 10.4997 7.42708C10.4997 5.58613 9.00729 4.09375 7.16634 4.09375C5.32539 4.09375 3.83301 5.58613 3.83301 7.42708C3.83301 9.26803 5.32539 10.7604 7.16634 10.7604ZM12.0135 12.5233V28.2704H17.6092V19.5985C17.6092 18.9735 17.7068 18.4608 17.9021 18.0604C18.1072 17.66 18.3709 17.3622 18.6931 17.1669C19.0252 16.9716 19.3816 16.8739 19.7625 16.8739C20.0457 16.8739 20.3435 16.9423 20.656 17.079C20.9783 17.2157 21.2468 17.4696 21.4617 17.8407C21.6863 18.202 21.7986 18.7343 21.7986 19.4374V28.2704H27.3797V18.0165C27.3797 16.1024 26.9158 14.6718 25.9881 13.7245C25.0701 12.7772 23.8299 12.3036 22.2674 12.3036C21.3299 12.3036 20.5437 12.4598 19.909 12.7723C19.284 13.0848 18.7908 13.4657 18.4295 13.9149C18.0681 14.3641 17.824 14.7889 17.697 15.1893H17.4187V12.5233H12.0135ZM4.35056 12.5233V28.2704H9.93161V12.5233H4.35056Z" fill="url(#paint0_linear_68_38848)"/>
<defs>
<linearGradient id="paint0_linear_68_38848" x1="1.94926" y1="19.0834" x2="32.5603" y2="19.3127" gradientUnits="userSpaceOnUse">
<stop stop-color="#5C8DE1"/>
<stop offset="0.71875" stop-color="#35B0D0"/>
</linearGradient>
</defs>
</svg>
