<svg width="31" height="31" viewBox="0 0 31 31" fill="none" xmlns="http://www.w3.org/2000/svg">
<path fill-rule="evenodd" clip-rule="evenodd" d="M28.001 20.0567C28.001 23.8957 25.4387 27.0193 21.6371 27.0087H9.3649C5.56321 27.0193 3.00098 23.8957 3.00098 20.0567V11.4713C3.00098 7.63232 5.56321 4.50879 9.3649 4.50879H21.6371C25.4387 4.50879 28.001 7.63232 28.001 11.4713V20.0567ZM8.93209 10.8502C8.39467 10.4168 7.60773 10.5012 7.17439 11.0386C6.74106 11.576 6.82542 12.363 7.36284 12.7963L12.9638 17.3126L12.9638 17.3126L12.9716 17.3188C14.4759 18.5123 16.5961 18.5123 18.1005 17.3188L18.1122 17.3094L23.6663 12.7931C24.2019 12.3575 24.2831 11.5703 23.8475 11.0346C23.412 10.499 22.6247 10.4179 22.0891 10.8534L16.5416 15.3643C15.9487 15.8309 15.1211 15.8305 14.5287 15.3629L8.93209 10.8502Z" fill="url(#paint0_linear_68_38856)"/>
<defs>
<linearGradient id="paint0_linear_68_38856" x1="1.00098" y1="18.4588" x2="33.5005" y2="18.7365" gradientUnits="userSpaceOnUse">
<stop stop-color="#5C8DE1"/>
<stop offset="0.71875" stop-color="#35B0D0"/>
</linearGradient>
</defs>
</svg>
