<svg width="30" height="31" viewBox="0 0 30 31" fill="none" xmlns="http://www.w3.org/2000/svg">
<path fill-rule="evenodd" clip-rule="evenodd" d="M27.501 19.9024C27.501 23.7414 24.9387 26.865 21.1371 26.8544H8.8649C5.06321 26.865 2.50098 23.7414 2.50098 19.9024V11.317C2.50098 7.47802 5.06321 4.35449 8.8649 4.35449H21.1371C24.9387 4.35449 27.501 7.47802 27.501 11.317V19.9024ZM8.43209 10.6959C7.89467 10.2625 7.10773 10.3469 6.67439 10.8843C6.24106 11.4217 6.32542 12.2087 6.86284 12.642L12.4638 17.1583L12.4638 17.1583L12.4716 17.1645C13.9759 18.358 16.0961 18.358 17.6005 17.1645L17.6122 17.1551L23.1663 12.6388C23.7019 12.2032 23.7831 11.416 23.3475 10.8803C22.912 10.3447 22.1247 10.2636 21.5891 10.6991L16.0416 15.21C15.4487 15.6766 14.6211 15.6762 14.0287 15.2086L8.43209 10.6959Z" fill="#0057FC"/>
</svg>
