<svg width="64" height="64" xmlns="http://www.w3.org/2000/svg" xml:space="preserve" version="1.1">

 <g>
  <title>Layer 1</title>
  <g id="guidlines"/>
  <g id="FB"/>
  <g id="ig"/>
  <g id="yt"/>
  <g id="twitter"/>
  <g id="snapchat"/>
  <g id="WA"/>
  <g id="Pinterrest"/>
  <g id="Layer_9"/>
  <g id="Layer_10"/>
  <g id="Layer_11">
   <g id="svg_1">
    <g id="svg_2">
     <path id="svg_3" fill="url(#paint0_linear_68_38853)" d="m32,2c-7.4,0 -13.5,6 -13.5,13.5c0,7.4 6,13.5 13.5,13.5s13.5,-6 13.5,-13.5c0,-7.5 -6.1,-13.5 -13.5,-13.5zm0,18c-2.5,0 -4.5,-2 -4.5,-4.5c0,-2.5 2,-4.5 4.5,-4.5c2.5,0 4.5,2 4.5,4.5c0,2.5 -2,4.5 -4.5,4.5z" class="st15"/>
    </g>
    <g id="svg_4">
     <path id="svg_5" fill="url(#paint0_linear_68_38853)" d="m48.6,38.1c-3.4,1.9 -7.1,3.2 -10.8,3.8l10.5,12.9c1.2,1.5 1.5,3.6 0.4,5.2c-1.7,2.6 -5.3,2.7 -7.1,0.4l-9.7,-11.9l-9.6,11.9c-0.9,1.1 -2.1,1.6 -3.4,1.6c-1.3,0 -2.6,-0.6 -3.5,-1.8c-1.1,-1.5 -1,-4 0.2,-5.5l10.4,-13c-3.7,-0.7 -7.4,-1.9 -10.7,-3.8c-2.1,-1.2 -2.8,-3.8 -1.6,-6c1.2,-2.1 3.9,-2.8 6,-1.6c7.6,4.3 17.1,4.3 24.8,0.1c2.1,-1.2 4.8,-0.4 5.9,1.7c1.1,2.2 0.3,4.8 -1.8,6z" class="st15"/>
    </g>
   </g>
  </g>
  <g id="Layer_12"/>
  <g id="Layer_13"/>
  <g id="Layer_14"/>
  <g id="Layer_15"/>
  <g id="Layer_16"/>
  <g id="Layer_17"/>
 </g>
 <defs>
  <linearGradient id="paint0_linear_68_38853" x1="-0.0138018" y1="18.1598" x2="31.1862" y2="18.4478" gradientUnits="userSpaceOnUse">
  <stop stop-color="#5C8DE1"/>
  <stop offset="0.71875" stop-color="#35B0D0"/>
  </linearGradient>
  </defs>
</svg>