<svg width="70" height="71" viewBox="0 0 70 71" fill="none" xmlns="http://www.w3.org/2000/svg">
<path d="M31.242 44.057C31.0374 44.057 30.8455 44.0247 30.6664 43.9602C30.4873 43.8968 30.321 43.7883 30.1675 43.6348L23.5666 37.0339C23.2852 36.7525 23.1506 36.3877 23.1629 35.9394C23.1762 35.4922 23.3236 35.1279 23.605 34.8464C23.8864 34.565 24.2446 34.4243 24.6795 34.4243C25.1145 34.4243 25.4727 34.565 25.7541 34.8464L31.242 40.3344L44.2519 27.3245C44.5333 27.0431 44.8982 26.9023 45.3464 26.9023C45.7937 26.9023 46.158 27.0431 46.4394 27.3245C46.7208 27.6059 46.8616 27.9703 46.8616 28.4175C46.8616 28.8657 46.7208 29.2306 46.4394 29.512L32.3166 43.6348C32.1631 43.7883 31.9968 43.8968 31.8177 43.9602C31.6386 44.0247 31.4467 44.057 31.242 44.057Z" fill="url(#paint0_linear_101_38123)"/>
<circle cx="35.002" cy="35.5" r="33.4649" stroke="url(#paint1_linear_101_38123)" stroke-width="3.07018"/>
<defs>
<linearGradient id="paint0_linear_101_38123" x1="21.5031" y1="37.3667" x2="37.3307" y2="36.0612" gradientUnits="userSpaceOnUse">
<stop stop-color="#6196EC"/>
<stop offset="1" stop-color="#34BADD"/>
</linearGradient>
<linearGradient id="paint1_linear_101_38123" x1="-4.89805" y1="43.2" x2="42.002" y2="40.4" gradientUnits="userSpaceOnUse">
<stop stop-color="#6196EC"/>
<stop offset="1" stop-color="#34BADD"/>
</linearGradient>
</defs>
</svg>
