<svg width="31" height="31" viewBox="0 0 31 31" fill="none" xmlns="http://www.w3.org/2000/svg">
<path fill-rule="evenodd" clip-rule="evenodd" d="M20.2907 25.5389C20.6127 25.7669 21.0277 25.8239 21.3977 25.6839C21.7677 25.5429 22.0397 25.2269 22.1217 24.8439C22.9907 20.7599 25.0987 10.4229 25.8897 6.70792C25.9497 6.42792 25.8497 6.13692 25.6297 5.94992C25.4097 5.76292 25.1047 5.7089 24.8327 5.80992C20.6397 7.36192 7.72658 12.2069 2.44865 14.1599C2.11365 14.2839 1.89565 14.6059 1.90665 14.9589C1.91865 15.3129 2.15665 15.6199 2.49965 15.7229C4.86658 16.4309 7.97358 17.4159 7.97358 17.4159C7.97358 17.4159 9.42558 21.8009 10.1826 24.0309C10.2776 24.3109 10.4966 24.5309 10.7856 24.6069C11.0736 24.6819 11.3816 24.6029 11.5966 24.3999C12.8126 23.2519 14.6926 21.4769 14.6926 21.4769C14.6926 21.4769 18.2647 24.0959 20.2907 25.5389ZM9.28058 16.8619L10.9596 22.3999L11.3326 18.8929C11.3326 18.8929 17.8196 13.0419 21.5177 9.70692C21.6257 9.60892 21.6407 9.44492 21.5507 9.32992C21.4617 9.21492 21.2977 9.18792 21.1747 9.26592C16.8886 12.0029 9.28058 16.8619 9.28058 16.8619Z" fill="url(#paint0_linear_68_38853)"/>
<defs>
<linearGradient id="paint0_linear_68_38853" x1="-0.0138018" y1="18.1598" x2="31.1862" y2="18.4478" gradientUnits="userSpaceOnUse">
<stop stop-color="#5C8DE1"/>
<stop offset="0.71875" stop-color="#35B0D0"/>
</linearGradient>
</defs>
</svg>
