<svg width="30" height="31" viewBox="0 0 30 31" fill="none" xmlns="http://www.w3.org/2000/svg">
<path fill-rule="evenodd" clip-rule="evenodd" d="M19.7907 25.3846C20.1127 25.6126 20.5277 25.6696 20.8977 25.5296C21.2677 25.3886 21.5397 25.0726 21.6217 24.6896C22.4907 20.6056 24.5987 10.2686 25.3897 6.55362C25.4497 6.27362 25.3497 5.98263 25.1297 5.79563C24.9097 5.60863 24.6047 5.55461 24.3327 5.65562C20.1397 7.20762 7.22658 12.0526 1.94865 14.0056C1.61365 14.1296 1.39565 14.4516 1.40665 14.8046C1.41865 15.1586 1.65665 15.4656 1.99965 15.5686C4.36658 16.2766 7.47358 17.2616 7.47358 17.2616C7.47358 17.2616 8.92558 21.6466 9.68258 23.8766C9.77758 24.1566 9.99658 24.3766 10.2856 24.4526C10.5736 24.5276 10.8816 24.4486 11.0966 24.2456C12.3126 23.0976 14.1926 21.3226 14.1926 21.3226C14.1926 21.3226 17.7647 23.9416 19.7907 25.3846ZM8.78058 16.7076L10.4596 22.2456L10.8326 18.7386C10.8326 18.7386 17.3196 12.8876 21.0177 9.55262C21.1257 9.45462 21.1407 9.29062 21.0507 9.17562C20.9617 9.06062 20.7977 9.03362 20.6747 9.11162C16.3886 11.8486 8.78058 16.7076 8.78058 16.7076Z" fill="#0057FC"/>
</svg>
