<svg width="146" height="45" viewBox="0 0 146 45" fill="none" xmlns="http://www.w3.org/2000/svg">
<g clip-path="url(#clip0_68_32530)">
<mask id="mask0_68_32530" style="mask-type:luminance" maskUnits="userSpaceOnUse" x="-1" y="5" width="36" height="36">
<path d="M34.998 5.00195H-0.00195312V40.002H34.998V5.00195Z" fill="white"/>
</mask>
<g mask="url(#mask0_68_32530)">
<path d="M20.049 14.8458C20.049 15.5228 19.78 16.1721 19.3014 16.6509C18.8226 17.1296 18.1731 17.3986 17.4962 17.3986C16.8191 17.3986 16.1698 17.1296 15.6911 16.6509C15.2123 16.1721 14.9434 15.5228 14.9434 14.8458C14.9434 14.1687 15.2123 13.5194 15.6911 13.0407C16.1698 12.5619 16.8191 12.293 17.4962 12.293C18.1731 12.293 18.8226 12.5619 19.3014 13.0407C19.78 13.5194 20.049 14.1687 20.049 14.8458Z" fill="#34BBDE"/>
<path d="M17.498 5.00195C12.8568 5.00195 8.40557 6.8457 5.12367 10.1276C1.84179 13.4095 -0.00195312 17.8607 -0.00195312 22.502C-0.00195312 27.1433 1.84179 31.5944 5.12367 34.8764C8.40557 38.1582 12.8568 40.002 17.498 40.002C22.1394 40.002 26.5905 38.1582 29.8725 34.8764C33.1542 31.5944 34.998 27.1433 34.998 22.502C34.998 17.8607 33.1542 13.4095 29.8725 10.1276C26.5905 6.8457 22.1394 5.00195 17.498 5.00195ZM2.18555 22.502C2.18555 18.4408 3.79882 14.546 6.67048 11.6744C9.54213 8.80273 13.4369 7.18945 17.498 7.18945C19.5286 7.18945 21.476 7.9961 22.9118 9.43192C24.3477 10.8677 25.1543 12.8151 25.1543 14.8457C25.1543 16.8763 24.3477 18.8237 22.9118 20.2595C21.476 21.6953 19.5286 22.502 17.498 22.502C15.4675 22.502 13.5201 23.3085 12.0843 24.7444C10.6484 26.1803 9.8418 28.1277 9.8418 30.1582C9.8418 32.1887 10.6484 34.1361 12.0843 35.572C13.5201 37.0079 15.4675 37.8145 17.498 37.8145C13.4369 37.8145 9.54213 36.2011 6.67048 33.3296C3.79882 30.4578 2.18555 26.563 2.18555 22.502Z" fill="url(#paint0_linear_68_32530)"/>
<path d="M2.18555 22.502C2.18555 18.4408 3.79882 14.546 6.67048 11.6744C9.54213 8.80273 13.4369 7.18945 17.498 7.18945C19.5286 7.18945 21.476 7.9961 22.9118 9.43192C24.3477 10.8677 25.1543 12.8151 25.1543 14.8457C25.1543 16.8763 24.3477 18.8237 22.9118 20.2595C21.476 21.6953 19.5286 22.502 17.498 22.502C15.4675 22.502 13.5201 23.3085 12.0843 24.7444C10.6484 26.1803 9.8418 28.1277 9.8418 30.1582C9.8418 32.1887 10.6484 34.1361 12.0843 35.572C13.5201 37.0079 15.4675 37.8145 17.498 37.8145C13.4369 37.8145 9.54213 36.2011 6.67048 33.3296C3.79882 30.4578 2.18555 26.563 2.18555 22.502Z" fill="white"/>
<path d="M12.839 15.2957C12.6424 15.2811 12.5514 15.1537 12.566 14.9134C12.5732 14.8551 12.6133 14.786 12.6861 14.7058C12.7589 14.6185 12.8427 14.5711 12.9373 14.5638C13.1631 14.542 13.4398 14.5092 13.7675 14.4656C14.1024 14.4146 14.4702 14.3563 14.8707 14.2908C14.9435 13.934 15.0309 13.5589 15.1328 13.1657C15.2348 12.7725 15.3476 12.3902 15.4714 12.0188C15.5952 11.6402 15.7263 11.2979 15.8647 10.9921C16.003 10.6863 16.1486 10.446 16.3016 10.2712C16.3817 10.1911 16.4545 10.1365 16.52 10.1074C16.5856 10.0709 16.6438 10.0527 16.6948 10.0527C16.7967 10.0527 16.8768 10.0964 16.9351 10.1838C17.0006 10.2712 17.0334 10.3695 17.0334 10.4787C17.0334 10.537 17.0225 10.5952 17.0006 10.6535C16.855 11.0613 16.6984 11.5637 16.531 12.1608C16.3635 12.758 16.185 13.4097 15.9957 14.116C16.6657 14.0068 16.5728 14.0322 17.2427 13.9084C17.9127 13.7846 18.4879 13.6718 18.9685 13.5698C19.1069 13.5115 19.2124 13.5225 19.2852 13.6026C19.3654 13.6827 19.4055 13.7628 19.4055 13.8429C19.4055 13.9448 19.3762 14.0213 19.318 14.0723C19.267 14.1232 19.2124 14.1669 19.1542 14.2033L19.1433 14.2143C18.9977 14.2725 18.7791 14.3417 18.4879 14.4218C18.1966 14.4946 17.8616 14.5747 17.483 14.6621C17.1043 14.7422 16.7002 14.8223 17.0334 14.7605C16.611 14.8406 16.1923 14.9134 15.7773 14.9789C15.6098 15.6197 15.4387 16.2787 15.2639 16.956C15.0964 17.6259 15.1052 17.5193 14.9748 18.25C14.8444 18.9807 15.4904 18.7458 15.8427 18.6283C16.1951 18.5109 16.8085 18.0763 17.6045 17.5397C17.9334 17.3179 18.1089 17.2425 18.2608 17.2172C18.6131 17.1584 18.6131 17.4521 18.3194 17.8044C18.202 17.9453 18.0259 18.1568 17.6045 18.5109C16.8002 19.1866 16.1363 19.6266 15.0793 19.6266C14.6111 19.6266 13.9667 19.2743 14.101 18.1845C14.2572 16.917 14.685 15.1428 14.685 15.1428C14.2481 15.2083 13.8621 15.2556 13.5272 15.2848C13.1995 15.3139 12.9701 15.3175 12.839 15.2957Z" fill="url(#paint1_linear_68_32530)"/>
<path d="M20.9526 28.8226C20.9526 29.0557 20.8798 29.2851 20.7342 29.5109C20.5886 29.7293 20.3956 29.9405 20.1553 30.1444C19.915 30.3409 19.6492 30.5266 19.3578 30.7014C19.0666 30.8762 18.7754 31.029 18.484 31.1601C18.1928 31.2911 17.927 31.3968 17.6867 31.4768C17.6285 31.7608 17.5992 32.0121 17.5992 32.2305C17.5992 32.369 17.6321 32.4673 17.6976 32.5254C17.7632 32.5837 17.8651 32.6129 18.0035 32.6129C18.3092 32.6129 18.6333 32.5583 18.9756 32.4491C19.3179 32.3397 19.6674 32.1978 20.0242 32.023C20.381 31.8483 20.7232 31.6627 21.0509 31.466C21.3785 31.2694 21.6771 31.0836 21.9466 30.9089C22.2233 30.7341 22.4527 30.5922 22.6347 30.483C22.8169 30.3736 22.9369 30.319 22.9952 30.319C23.0825 30.319 23.1481 30.3482 23.1917 30.4065C23.2428 30.4574 23.2682 30.5194 23.2682 30.5922C23.2682 30.6505 23.1772 30.7633 22.9952 30.9308C22.8204 31.0983 22.5838 31.2948 22.2852 31.5206C21.9867 31.739 21.6517 31.9647 21.2804 32.1978C20.909 32.4307 20.523 32.6493 20.1226 32.8532C19.7293 33.0571 19.347 33.2209 18.9756 33.3448C18.6114 33.4685 18.2838 33.5304 17.9925 33.5304C17.6139 33.5304 17.319 33.3883 17.1078 33.1045C16.8966 32.8205 16.791 32.3798 16.791 31.7827C16.791 31.3823 16.842 30.9781 16.9439 30.5703C17.0532 30.1626 17.1988 29.773 17.3809 29.4015C17.5702 29.023 17.7777 28.688 18.0035 28.3966C18.2364 28.0981 18.4804 27.8652 18.7353 27.6975C18.9901 27.5229 19.2378 27.4355 19.478 27.4355C19.9367 27.4355 20.2972 27.5629 20.5594 27.8177C20.8215 28.0725 20.9526 28.4077 20.9526 28.8226ZM17.9925 30.483C18.2182 30.3446 18.3748 30.3519 18.6151 30.199C18.8554 30.046 19.0775 29.8894 19.2815 29.7293C19.4854 29.569 19.6492 29.4015 19.7729 29.2268C19.904 29.0447 19.9696 28.859 19.9696 28.6698C19.9696 28.4003 19.824 28.2656 19.5326 28.2656C19.3506 28.2656 19.1576 28.3821 18.9537 28.615C18.7572 28.8408 18.5679 29.1358 18.3857 29.4998C18.2037 29.864 18.1235 30.0898 17.9925 30.483Z" fill="white"/>
</g>
</g>
<path d="M48.8975 28.5H46.9023V18.208H43.3955V16.5029H52.4131V18.208H48.8975V28.5ZM58.9785 16.5029C59.8223 16.5029 60.5459 16.6553 61.1494 16.96C61.7529 17.2646 62.2158 17.6953 62.5381 18.252C62.8604 18.8027 63.0215 19.4502 63.0215 20.1943C63.0215 20.7627 62.9219 21.2725 62.7227 21.7236C62.5234 22.1689 62.2568 22.5469 61.9229 22.8574C61.5889 23.168 61.2197 23.3994 60.8154 23.5518L63.2412 28.5H61L58.8467 23.8857H56.3594V28.5H54.3906V16.5029H58.9785ZM56.3594 22.3037H58.6445C59.3828 22.3037 59.9541 22.1338 60.3584 21.7939C60.7627 21.4482 60.9648 20.9385 60.9648 20.2646C60.9648 19.5791 60.7598 19.0547 60.3496 18.6914C59.9453 18.3223 59.3945 18.1377 58.6973 18.1377H56.3594V22.3037ZM70.3164 27.0146C71.1426 27.0146 71.8018 26.7686 72.2939 26.2764C72.7861 25.7842 73.0322 25.0986 73.0322 24.2197V16.5029H75.0273V24.3604C75.0273 25.2334 74.8311 26.001 74.4385 26.6631C74.0518 27.3193 73.5068 27.8291 72.8037 28.1924C72.1006 28.5557 71.2715 28.7373 70.3164 28.7373C69.3672 28.7373 68.5381 28.5557 67.8291 28.1924C67.126 27.8291 66.5781 27.3193 66.1855 26.6631C65.7988 26.001 65.6055 25.2334 65.6055 24.3604V16.5029H67.6006V24.2197C67.6006 25.0986 67.8467 25.7842 68.3389 26.2764C68.8369 26.7686 69.4961 27.0146 70.3164 27.0146ZM79.8701 28.5H78.0859V16.5029H80.0811L83.7461 25.002H83.8164L87.4814 16.5029H89.4678V28.5H87.666V20.1504H87.5605L84.4844 27.2256H83.0518L79.9756 20.1504H79.8701V28.5ZM100.164 26.8213V28.5H92.6758V16.5029H100.164V18.1816H94.6621V21.6006H99.8389V23.209H94.6621V26.8213H100.164ZM104.857 28.5H102.941V16.5029H104.699L110.298 25.1162H110.386V16.5029H112.302V28.5H110.553L104.937 19.8604H104.857V28.5ZM122.963 26.8213V28.5H115.475V16.5029H122.963V18.1816H117.461V21.6006H122.638V23.209H117.461V26.8213H122.963ZM128.658 28.5L124.501 16.5029H126.795L129.774 26.2588H129.871L132.842 16.5029H135.065L130.926 28.5H128.658ZM137.131 28.5H135.092L139.223 16.5029H141.446L145.577 28.5H143.468L142.404 25.1777H138.194L137.131 28.5ZM140.348 18.5771H140.26L138.643 23.6484H141.956L140.348 18.5771Z" fill="url(#paint2_linear_68_32530)"/>
<defs>
<linearGradient id="paint0_linear_68_32530" x1="-2.45195" y1="26.352" x2="20.998" y2="24.952" gradientUnits="userSpaceOnUse">
<stop stop-color="#6196EC"/>
<stop offset="1" stop-color="#34BADD"/>
</linearGradient>
<linearGradient id="paint1_linear_68_32530" x1="13.8564" y1="19.6836" x2="23.5615" y2="9.21497" gradientUnits="userSpaceOnUse">
<stop stop-color="#54A1E8"/>
<stop offset="1" stop-color="#34BADD"/>
</linearGradient>
<linearGradient id="paint2_linear_68_32530" x1="34.76" y1="25.38" x2="168.522" y2="29.7959" gradientUnits="userSpaceOnUse">
<stop stop-color="#5C8DE1"/>
<stop offset="0.71875" stop-color="#35B0D0"/>
</linearGradient>
<clipPath id="clip0_68_32530">
<rect width="35" height="35" fill="white" transform="translate(0 5)"/>
</clipPath>
</defs>
</svg>
