<svg width="85" height="86" viewBox="0 0 85 86" fill="none" xmlns="http://www.w3.org/2000/svg">
<path fill-rule="evenodd" clip-rule="evenodd" d="M74.375 29.1741V57.3381C74.375 67.7731 67.8481 75.1328 57.4187 75.1328H27.5467C17.1174 75.1328 10.625 67.7731 10.625 57.3381V29.1741C10.625 18.7391 17.152 11.3828 27.5467 11.3828H57.4187C67.8481 11.3828 74.375 18.7391 74.375 29.1741Z" stroke="#49A7EC" stroke-width="1.5" stroke-linecap="round" stroke-linejoin="round"/>
<path d="M19.3672 58.6541L24.644 53.0808C26.4778 51.1354 29.534 51.0421 31.4818 52.8734C31.5405 52.9322 34.7176 56.1629 34.7176 56.1629C36.6343 58.1151 39.7665 58.1462 41.7177 56.232C41.8455 56.1076 49.7779 46.4812 49.7779 46.4812C51.8224 43.9968 55.4933 43.6409 57.9798 45.6899C58.1456 45.8281 65.6395 53.523 65.6395 53.523" stroke="#49A7EC" stroke-width="1.5" stroke-linecap="round" stroke-linejoin="round"/>
<path fill-rule="evenodd" clip-rule="evenodd" d="M36.7406 33.4365C36.7406 36.7847 34.0296 39.4971 30.6833 39.4971C27.3369 39.4971 24.626 36.7847 24.626 33.4365C24.626 30.0884 27.3369 27.376 30.6833 27.376C34.0296 27.3794 36.7406 30.0884 36.7406 33.4365Z" stroke="#49A7EC" stroke-width="1.5" stroke-linecap="round" stroke-linejoin="round"/>
</svg>
